HIERARCHY
ROOT Hips
{
	OFFSET -0.001795 -0.223333 0.028219
	CHANNELS 6 Xposition Yposition Zposition Zrotation Yrotation Xrotation 
	JOINT LeftUpLeg
	{
		OFFSET 0.069520 -0.091406 -0.006815
		CHANNELS 3 Zrotation Yrotation Xrotation
		JOINT LeftLeg
		{
			OFFSET 0.034277 -0.375199 -0.004496
			CHANNELS 3 Zrotation Yrotation Xrotation
			JOINT LeftFoot
			{
				OFFSET -0.013596 -0.397961 -0.043693
				CHANNELS 3 Zrotation Yrotation Xrotation
				JOINT LeftToe
				{
					OFFSET 0.026358 -0.055791 0.119288
					CHANNELS 3 Zrotation Yrotation Xrotation
					End Site
					{
						OFFSET 0.000000 0.000000 0.000000
					}
				}
			}
		}
	}
	JOINT RightUpLeg
	{
		OFFSET -0.067670 -0.090522 -0.004320
		CHANNELS 3 Zrotation Yrotation Xrotation
		JOINT RightLeg
		{
			OFFSET -0.038290 -0.382569 -0.008850
			CHANNELS 3 Zrotation Yrotation Xrotation
			JOINT RightFoot
			{
				OFFSET 0.015774 -0.398415 -0.042312
				CHANNELS 3 Zrotation Yrotation Xrotation
				JOINT RightToe
				{
					OFFSET -0.025372 -0.048144 0.123348
					CHANNELS 3 Zrotation Yrotation Xrotation
					End Site
					{
						OFFSET 0.000000 0.000000 0.000000
					}
				}
			}
		}
	}
	JOINT Spine
	{
		OFFSET -0.002533 0.108963 -0.026696
		CHANNELS 3 Zrotation Yrotation Xrotation
		JOINT Spine1
		{
			OFFSET 0.005487 0.135180 0.001092
			CHANNELS 3 Zrotation Yrotation Xrotation
			JOINT Spine2
			{
				OFFSET 0.001457 0.052922 0.025425
				CHANNELS 3 Zrotation Yrotation Xrotation
				JOINT Neck
				{
					OFFSET -0.002778 0.213870 -0.042857
					CHANNELS 3 Zrotation Yrotation Xrotation
					JOINT Head
					{
						OFFSET 0.005152 0.064970 0.051349
						CHANNELS 3 Zrotation Yrotation Xrotation
						End Site
						{
							OFFSET 0.000000 0.000000 0.000000
						}
					}
				}
				JOINT LeftShoulder
				{
					OFFSET 0.078845 0.121749 -0.034090
					CHANNELS 3 Zrotation Yrotation Xrotation
					JOINT LeftArm
					{
						OFFSET 0.090977 0.030469 -0.008868
						CHANNELS 3 Zrotation Yrotation Xrotation
						JOINT LeftForeArm
						{
							OFFSET 0.259612 -0.012772 -0.027456
							CHANNELS 3 Zrotation Yrotation Xrotation
							JOINT LeftHand
							{
								OFFSET 0.249234 0.008986 -0.001171
								CHANNELS 3 Zrotation Yrotation Xrotation
								End Site
								{
									OFFSET 0.000000 0.000000 0.000000
								}
							}
						}
					}
				}
				JOINT RightShoulder
				{
					OFFSET -0.081759 0.118833 -0.038615
					CHANNELS 3 Zrotation Yrotation Xrotation
					JOINT RightArm
					{
						OFFSET -0.096012 0.032551 -0.009143
						CHANNELS 3 Zrotation Yrotation Xrotation
						JOINT RightForeArm
						{
							OFFSET -0.253742 -0.013329 -0.021401
							CHANNELS 3 Zrotation Yrotation Xrotation
							JOINT RightHand
							{
								OFFSET -0.255298 0.007772 -0.005559
								CHANNELS 3 Zrotation Yrotation Xrotation
								End Site
								{
									OFFSET 0.000000 0.000000 0.000000
								}
							}
						}
					}
				}
			}
		}
	}
}
MOTION
Frames: 15
Frame Time: 0.050000
0.038530 0.939395 -0.078688 -2.629323 -3.262643 6.308104 -1.035270 -1.269552 -13.297510 -2.410953 0.211619 7.457418 7.497549 16.038776 5.941682 0.000000 0.000000 0.000000 1.925378 1.362070 -12.162694 -2.605384 1.186066 13.442093 -2.282439 -6.561369 1.880514 0.000000 0.000000 0.000000 2.607993 -1.076296 16.630328 1.454725 -0.579223 -2.875831 -5.445299 5.860769 10.021405 13.400074 -2.456278 -36.492560 0.000000 0.000000 0.000000 16.226116 -33.841663 8.107297 10.678695 -45.203462 -7.044127 39.963079 4.935692 1.382448 0.000000 0.000000 0.000000 -0.914967 25.689165 9.295869 10.416600 42.747345 0.728355 -51.288970 13.695584 -4.118664 0.000000 0.000000 0.000000 
0.036515 0.938779 -0.088380 -2.326920 -4.094116 5.350860 -1.082759 -1.214361 -12.671644 -2.596849 0.259381 7.085824 7.583369 16.142235 5.676382 0.000000 0.000000 0.000000 1.639842 1.217755 -11.081644 -2.306414 1.137216 13.446970 -2.224098 -6.128621 1.155338 0.000000 0.000000 0.000000 2.597304 -1.001147 15.863000 1.518206 -0.618974 -2.782516 -5.306604 5.601059 10.251301 12.703788 -2.471412 -35.382505 0.000000 0.000000 0.000000 12.104330 -33.554608 8.856052 6.529471 -46.019683 -5.642962 42.540090 2.097661 0.556283 0.000000 0.000000 0.000000 3.150507 24.481326 9.653368 18.643336 41.878075 2.974609 -57.781696 25.811651 -11.031452 0.000000 0.000000 0.000000 
0.034012 0.937711 -0.099954 -2.095603 -4.212140 4.485112 -1.180612 -1.197499 -12.359510 -2.468346 0.238136 7.110571 7.537016 16.053572 5.805820 0.000000 0.000000 0.000000 1.738965 1.091898 -9.974823 -2.306186 1.155297 13.644874 -2.498906 -6.544867 0.575650 0.000000 0.000000 0.000000 2.973750 -0.986064 14.726388 1.571115 -0.684121 -1.588419 -5.497264 4.639292 9.594037 12.347043 -2.642422 -34.071309 0.000000 0.000000 0.000000 8.312329 -32.704703 9.440933 2.603058 -46.740809 -4.220396 44.045401 -0.890699 -0.413139 0.000000 0.000000 0.000000 6.782025 22.598285 9.465510 27.616828 38.774407 4.898025 -63.886952 39.834039 -21.152808 0.000000 0.000000 0.000000 
0.030583 0.936944 -0.113964 -1.918205 -4.952283 3.536098 -0.900949 -1.142995 -12.056354 -2.831529 0.315936 6.755384 7.994096 16.857204 6.690626 0.000000 0.000000 0.000000 1.798441 1.001455 -9.182851 -2.169401 1.186557 14.238779 -2.399525 -6.015071 -0.054075 0.000000 0.000000 0.000000 2.939660 -0.897889 13.698636 1.763217 -0.776904 -1.632513 -5.545421 4.077288 10.121764 12.041079 -2.879093 -32.827480 0.000000 0.000000 0.000000 5.271490 -31.850579 9.826436 -2.680375 -46.698726 -2.296390 46.437782 -4.629516 -1.803294 0.000000 0.000000 0.000000 10.256958 20.706178 9.046726 35.456149 34.025710 5.510757 -68.366861 54.495367 -33.555935 0.000000 0.000000 0.000000 
0.026438 0.935401 -0.130797 -1.881650 -5.545422 3.114076 -0.478963 -1.135581 -12.474068 -2.811905 0.321952 6.947176 8.417218 17.569612 6.880899 0.000000 0.000000 0.000000 2.110639 1.006229 -9.107431 -2.310421 1.308200 15.179821 -2.285782 -5.302825 -0.950679 0.000000 0.000000 0.000000 3.200767 -0.860312 12.663389 1.642446 -0.747089 -0.868120 -5.412016 3.014765 9.672803 11.450069 -2.854575 -32.269879 0.000000 0.000000 0.000000 2.343741 -30.505449 10.088703 -8.374092 -45.785522 -0.240077 49.241969 -9.032139 -3.599940 0.000000 0.000000 0.000000 12.024246 18.599666 8.018376 43.460510 28.857596 5.484082 -74.804883 67.760502 -49.120108 0.000000 0.000000 0.000000 
0.021778 0.933857 -0.150273 -1.765345 -7.037813 2.450172 0.323672 -1.092301 -13.169461 -2.989452 0.379371 7.090879 8.650361 17.892969 7.353320 0.000000 0.000000 0.000000 2.218412 0.997959 -9.006753 -2.434566 1.507858 16.669091 -2.399051 -4.932274 -2.154066 0.000000 0.000000 0.000000 3.175446 -0.792612 12.044231 1.609253 -0.725523 -1.384626 -5.055190 2.120095 10.451470 10.993396 -3.058861 -31.381313 0.000000 0.000000 0.000000 -0.578716 -28.139113 9.988639 -15.151802 -44.534110 1.920607 52.612369 -14.649598 -6.154604 0.000000 0.000000 0.000000 13.248629 16.084901 6.537282 49.638882 24.524304 4.737071 -82.518490 80.513317 -68.475138 0.000000 0.000000 0.000000 
0.016707 0.932188 -0.171873 -1.692738 -8.490014 1.866512 1.403195 -1.001805 -14.042173 -3.568994 0.535274 8.296462 9.017811 18.456135 7.215399 0.000000 0.000000 0.000000 2.677440 1.063834 -9.359245 -2.650292 1.784422 18.459925 -2.311117 -4.125908 -3.052018 0.000000 0.000000 0.000000 3.549697 -0.773268 11.385901 1.278581 -0.588459 -0.893084 -5.048803 0.990688 9.721709 10.938086 -3.515529 -29.662515 0.000000 0.000000 0.000000 -3.528473 -25.787066 9.883313 -22.183817 -42.492768 3.839902 55.761503 -20.971772 -9.321255 0.000000 0.000000 0.000000 13.304988 13.536291 4.874816 55.138514 19.452835 3.189453 159.288454 87.240020 161.874242 0.000000 0.000000 0.000000 
0.010899 0.930335 -0.195386 -1.483082 -9.742914 0.690731 2.055398 -0.858467 -13.363003 -3.617011 0.549628 7.109300 9.145697 18.538689 8.543346 0.000000 0.000000 0.000000 2.905966 1.028122 -8.986627 -2.652589 2.131732 21.172135 -3.397521 -5.867230 -4.986797 0.000000 0.000000 0.000000 3.786018 -0.741534 10.921197 1.483297 -0.684645 -1.459242 -5.081265 0.093105 10.582459 11.058254 -3.718909 -30.247149 0.000000 0.000000 0.000000 -6.096996 -23.474372 9.648240 -28.232239 -40.243409 5.014853 58.465694 -27.193219 -12.718865 0.000000 0.000000 0.000000 15.123935 10.319314 2.920563 56.903836 14.500666 0.881021 115.458771 78.621282 106.987964 0.000000 0.000000 0.000000 
0.004168 0.928063 -0.221083 -1.497493 -12.376367 -0.478931 3.510305 -0.591831 -12.869481 -4.223692 0.713120 6.664492 9.939995 19.658646 9.395548 0.000000 0.000000 0.000000 2.997172 0.973471 -8.571486 -2.787011 2.633760 23.745854 -3.953364 -7.460842 -4.356500 0.000000 0.000000 0.000000 4.460715 -0.726515 10.332822 0.922115 -0.442278 -0.910352 -4.938479 0.059152 10.672587 10.670785 -3.849445 -29.448171 0.000000 0.000000 0.000000 -7.196456 -21.545238 9.229836 -33.222669 -37.907310 5.665220 59.669400 -31.944878 -15.188859 0.000000 0.000000 0.000000 14.452822 8.954290 1.950268 58.936573 11.043358 -0.850781 109.896541 75.395932 96.661190 0.000000 0.000000 0.000000 
-0.003799 0.925274 -0.249710 -1.187563 -13.421747 -2.093983 4.414400 -0.395680 -11.546708 -4.377633 0.715200 4.857620 9.883736 19.329790 11.134949 0.000000 0.000000 0.000000 3.858605 0.946245 -8.054297 -3.518850 3.189733 25.475697 -4.255813 -8.425953 -3.836828 0.000000 0.000000 0.000000 4.444769 -0.709047 10.769447 1.156444 -0.561502 -0.720480 -5.185618 -0.994272 10.813469 11.160619 -4.205161 -29.884022 0.000000 0.000000 0.000000 -8.797241 -19.737652 8.967226 -37.561076 -35.548557 5.910953 62.221055 -36.944888 -18.394314 0.000000 0.000000 0.000000 15.180473 7.798841 0.963340 57.981514 7.877829 -2.347144 104.017786 74.531015 88.459842 0.000000 0.000000 0.000000 
-0.013135 0.922637 -0.282280 -1.047385 -13.877725 -3.263044 5.273157 -0.257386 -11.555635 -4.022073 0.656038 4.938550 9.584657 18.754768 11.581322 0.000000 0.000000 0.000000 4.525963 0.810054 -6.876130 -3.792885 3.076371 23.976921 -4.022047 -7.851299 -3.628340 0.000000 0.000000 0.000000 4.702482 -0.736678 11.362089 1.309331 -0.638895 -0.087530 -5.428431 -1.362570 10.188889 11.553454 -4.410079 -29.909841 0.000000 0.000000 0.000000 -9.764320 -19.428713 9.074421 -39.023358 -33.816056 5.617073 63.036908 -39.115123 -19.860428 0.000000 0.000000 0.000000 15.406350 6.534364 0.209629 57.306174 6.072777 -3.105926 94.182215 76.461830 80.226490 0.000000 0.000000 0.000000 
-0.024152 0.921062 -0.319179 -1.071787 -14.547586 -4.157563 5.994615 -0.122501 -11.269616 -3.821620 0.612127 4.205483 9.694388 18.872527 11.568077 0.000000 0.000000 0.000000 5.790355 0.843145 -6.716141 -3.786649 2.958841 22.976691 -4.060003 -7.577169 -4.151541 0.000000 0.000000 0.000000 5.194662 -0.790498 12.077322 1.597604 -0.780646 0.186326 -5.679463 -1.271859 10.261612 11.780600 -4.497911 -30.179428 0.000000 0.000000 0.000000 -10.856890 -18.509348 8.887321 -40.230074 -32.922974 5.474785 63.133908 -42.090713 -21.591015 0.000000 0.000000 0.000000 15.890202 5.190308 -0.542097 55.882955 5.053137 -3.463680 78.760585 77.993665 66.879352 0.000000 0.000000 0.000000 
-0.036448 0.921547 -0.359314 -1.259773 -14.274041 -3.775171 7.280803 0.048414 -12.229596 -4.110127 0.640160 3.226176 9.632810 18.771382 11.615847 0.000000 0.000000 0.000000 6.250130 1.073427 -8.005575 -2.927156 2.447857 21.345465 -4.104120 -8.448168 -2.844353 0.000000 0.000000 0.000000 5.399483 -0.805902 11.824000 2.180696 -1.058263 0.563596 -5.763736 -1.608844 9.191161 10.425075 -4.031235 -28.990502 0.000000 0.000000 0.000000 -12.424586 -17.147572 8.549752 -40.049909 -31.098141 4.735708 62.346814 -46.147503 -23.649739 0.000000 0.000000 0.000000 15.452039 5.065206 -0.566948 54.828457 4.473215 -3.549090 51.080307 77.502544 41.627245 0.000000 0.000000 0.000000 
-0.048537 0.924237 -0.401598 -1.157220 -15.211610 -3.286531 7.401104 0.093061 -12.946369 -4.919403 0.899735 6.214286 10.433155 20.417389 8.403827 0.000000 0.000000 0.000000 7.260610 1.393441 -9.550341 -2.874177 2.094631 18.601770 -3.268293 -7.583176 -0.582599 0.000000 0.000000 0.000000 5.396556 -0.785413 11.555232 2.068198 -0.995293 0.960962 -5.594414 -0.463040 8.779372 9.898978 -3.765299 -28.487472 0.000000 0.000000 0.000000 -12.537289 -18.149688 8.929117 -40.737650 -29.211631 4.200435 62.621211 -48.536411 -25.438021 0.000000 0.000000 0.000000 14.654946 3.573518 -1.000653 54.127041 3.330204 -4.037711 47.998872 77.103870 39.046415 0.000000 0.000000 0.000000 
-0.059926 0.926923 -0.445122 -0.801796 -15.544057 -3.706634 6.283074 -0.065792 -12.079308 -7.148984 1.928400 13.709093 9.986612 20.915185 0.077814 0.000000 0.000000 0.000000 8.182193 1.729215 -10.893282 -2.417372 1.718951 16.479710 -2.766307 -8.108801 2.580222 0.000000 0.000000 0.000000 4.938840 -0.770402 12.356281 2.115613 -1.023609 -0.091404 -5.781629 -1.255810 9.473139 10.274409 -4.017276 -28.962733 0.000000 0.000000 0.000000 -13.069254 -16.833591 8.601209 -41.552361 -28.024144 3.788598 61.987398 -52.619766 -27.208180 0.000000 0.000000 0.000000 13.785041 3.221296 -1.206201 53.556773 3.225322 -4.122528 51.668077 75.840095 40.780848 0.000000 0.000000 0.000000 
